<mxfile host="app.diagrams.net" modified="2023-10-26T21:22:59.152Z" agent="Mozilla/5.0 (Macintosh; Intel Mac OS X 10_15_7) AppleWebKit/537.36 (KHTML, like Gecko) Chrome/117.0.0.0 Safari/537.36" etag="Lsy7K45ugvWNMxBt38dl" version="22.0.6" type="device">
  <diagram name="Page-1" id="L6581gC38hVPu0W9vQ6U">
    <mxGraphModel dx="2261" dy="1881" grid="1" gridSize="10" guides="1" tooltips="1" connect="1" arrows="1" fold="1" page="1" pageScale="1" pageWidth="827" pageHeight="1169" math="0" shadow="0">
      <root>
        <mxCell id="0" />
        <mxCell id="1" parent="0" />
        <mxCell id="0xFaeS9UzdxINUvmmL4n-39" style="edgeStyle=orthogonalEdgeStyle;rounded=0;orthogonalLoop=1;jettySize=auto;html=1;startArrow=diamond;startFill=1;" parent="1" source="0xFaeS9UzdxINUvmmL4n-1" target="0xFaeS9UzdxINUvmmL4n-34" edge="1">
          <mxGeometry relative="1" as="geometry" />
        </mxCell>
        <mxCell id="0xFaeS9UzdxINUvmmL4n-54" value="seats" style="edgeLabel;html=1;align=center;verticalAlign=middle;resizable=0;points=[];" parent="0xFaeS9UzdxINUvmmL4n-39" vertex="1" connectable="0">
          <mxGeometry x="-0.4211" y="-2" relative="1" as="geometry">
            <mxPoint as="offset" />
          </mxGeometry>
        </mxCell>
        <mxCell id="0xFaeS9UzdxINUvmmL4n-1" value="CinemaHall" style="swimlane;fontStyle=1;align=center;verticalAlign=top;childLayout=stackLayout;horizontal=1;startSize=26;horizontalStack=0;resizeParent=1;resizeParentMax=0;resizeLast=0;collapsible=1;marginBottom=0;whiteSpace=wrap;html=1;" parent="1" vertex="1">
          <mxGeometry x="-505" y="251" width="170" height="78" as="geometry" />
        </mxCell>
        <mxCell id="0xFaeS9UzdxINUvmmL4n-2" value="+ name: string&lt;br&gt;+ capacity: int" style="text;strokeColor=none;fillColor=none;align=left;verticalAlign=top;spacingLeft=4;spacingRight=4;overflow=hidden;rotatable=0;points=[[0,0.5],[1,0.5]];portConstraint=eastwest;whiteSpace=wrap;html=1;" parent="0xFaeS9UzdxINUvmmL4n-1" vertex="1">
          <mxGeometry y="26" width="170" height="44" as="geometry" />
        </mxCell>
        <mxCell id="0xFaeS9UzdxINUvmmL4n-3" value="" style="line;strokeWidth=1;fillColor=none;align=left;verticalAlign=middle;spacingTop=-1;spacingLeft=3;spacingRight=3;rotatable=0;labelPosition=right;points=[];portConstraint=eastwest;strokeColor=inherit;" parent="0xFaeS9UzdxINUvmmL4n-1" vertex="1">
          <mxGeometry y="70" width="170" height="8" as="geometry" />
        </mxCell>
        <mxCell id="0xFaeS9UzdxINUvmmL4n-8" style="edgeStyle=orthogonalEdgeStyle;rounded=0;orthogonalLoop=1;jettySize=auto;html=1;entryX=0.75;entryY=1;entryDx=0;entryDy=0;startArrow=diamond;startFill=1;exitX=0.5;exitY=0;exitDx=0;exitDy=0;" parent="1" source="0xFaeS9UzdxINUvmmL4n-5" target="0xFaeS9UzdxINUvmmL4n-1" edge="1">
          <mxGeometry relative="1" as="geometry">
            <mxPoint x="-110" y="450" as="targetPoint" />
          </mxGeometry>
        </mxCell>
        <mxCell id="0xFaeS9UzdxINUvmmL4n-55" value="Text" style="edgeLabel;html=1;align=center;verticalAlign=middle;resizable=0;points=[];" parent="0xFaeS9UzdxINUvmmL4n-8" vertex="1" connectable="0">
          <mxGeometry x="0.3058" y="-1" relative="1" as="geometry">
            <mxPoint as="offset" />
          </mxGeometry>
        </mxCell>
        <mxCell id="0xFaeS9UzdxINUvmmL4n-56" value="has halls" style="edgeLabel;html=1;align=center;verticalAlign=middle;resizable=0;points=[];" parent="0xFaeS9UzdxINUvmmL4n-8" vertex="1" connectable="0">
          <mxGeometry x="0.3168" y="-5" relative="1" as="geometry">
            <mxPoint as="offset" />
          </mxGeometry>
        </mxCell>
        <mxCell id="0xFaeS9UzdxINUvmmL4n-10" value="MovieSpeciment" style="swimlane;fontStyle=1;align=center;verticalAlign=top;childLayout=stackLayout;horizontal=1;startSize=26;horizontalStack=0;resizeParent=1;resizeParentMax=0;resizeLast=0;collapsible=1;marginBottom=0;whiteSpace=wrap;html=1;" parent="1" vertex="1">
          <mxGeometry x="-70" y="-20" width="160" height="88" as="geometry" />
        </mxCell>
        <mxCell id="0xFaeS9UzdxINUvmmL4n-11" value="+ name&lt;br&gt;+ description&lt;br&gt;+ releaseDate" style="text;strokeColor=none;fillColor=none;align=left;verticalAlign=top;spacingLeft=4;spacingRight=4;overflow=hidden;rotatable=0;points=[[0,0.5],[1,0.5]];portConstraint=eastwest;whiteSpace=wrap;html=1;" parent="0xFaeS9UzdxINUvmmL4n-10" vertex="1">
          <mxGeometry y="26" width="160" height="54" as="geometry" />
        </mxCell>
        <mxCell id="0xFaeS9UzdxINUvmmL4n-12" value="" style="line;strokeWidth=1;fillColor=none;align=left;verticalAlign=middle;spacingTop=-1;spacingLeft=3;spacingRight=3;rotatable=0;labelPosition=right;points=[];portConstraint=eastwest;strokeColor=inherit;" parent="0xFaeS9UzdxINUvmmL4n-10" vertex="1">
          <mxGeometry y="80" width="160" height="8" as="geometry" />
        </mxCell>
        <mxCell id="0xFaeS9UzdxINUvmmL4n-57" style="edgeStyle=orthogonalEdgeStyle;rounded=0;orthogonalLoop=1;jettySize=auto;html=1;exitX=0;exitY=0.389;exitDx=0;exitDy=0;exitPerimeter=0;" parent="1" source="0xFaeS9UzdxINUvmmL4n-15" target="0xFaeS9UzdxINUvmmL4n-2" edge="1">
          <mxGeometry relative="1" as="geometry" />
        </mxCell>
        <mxCell id="0xFaeS9UzdxINUvmmL4n-14" value="Projection" style="swimlane;fontStyle=1;align=center;verticalAlign=top;childLayout=stackLayout;horizontal=1;startSize=26;horizontalStack=0;resizeParent=1;resizeParentMax=0;resizeLast=0;collapsible=1;marginBottom=0;whiteSpace=wrap;html=1;" parent="1" vertex="1">
          <mxGeometry x="-70" y="251" width="160" height="88" as="geometry" />
        </mxCell>
        <mxCell id="0Wo22rknSzl219PL7gas-8" style="edgeStyle=orthogonalEdgeStyle;rounded=0;orthogonalLoop=1;jettySize=auto;html=1;exitX=-0.019;exitY=0.074;exitDx=0;exitDy=0;exitPerimeter=0;" parent="0xFaeS9UzdxINUvmmL4n-14" source="0xFaeS9UzdxINUvmmL4n-15" edge="1">
          <mxGeometry relative="1" as="geometry">
            <mxPoint x="-170" y="-51" as="targetPoint" />
          </mxGeometry>
        </mxCell>
        <mxCell id="0xFaeS9UzdxINUvmmL4n-15" value="+ name&lt;br&gt;+ time&lt;br&gt;+ ..." style="text;strokeColor=none;fillColor=none;align=left;verticalAlign=top;spacingLeft=4;spacingRight=4;overflow=hidden;rotatable=0;points=[[0,0.5],[1,0.5]];portConstraint=eastwest;whiteSpace=wrap;html=1;" parent="0xFaeS9UzdxINUvmmL4n-14" vertex="1">
          <mxGeometry y="26" width="160" height="54" as="geometry" />
        </mxCell>
        <mxCell id="0xFaeS9UzdxINUvmmL4n-16" value="" style="line;strokeWidth=1;fillColor=none;align=left;verticalAlign=middle;spacingTop=-1;spacingLeft=3;spacingRight=3;rotatable=0;labelPosition=right;points=[];portConstraint=eastwest;strokeColor=inherit;" parent="0xFaeS9UzdxINUvmmL4n-14" vertex="1">
          <mxGeometry y="80" width="160" height="8" as="geometry" />
        </mxCell>
        <mxCell id="0xFaeS9UzdxINUvmmL4n-17" style="edgeStyle=orthogonalEdgeStyle;rounded=0;orthogonalLoop=1;jettySize=auto;html=1;entryX=0.5;entryY=0;entryDx=0;entryDy=0;exitX=0.5;exitY=1;exitDx=0;exitDy=0;startArrow=diamond;startFill=1;" parent="1" source="0xFaeS9UzdxINUvmmL4n-50" target="0xFaeS9UzdxINUvmmL4n-14" edge="1">
          <mxGeometry relative="1" as="geometry">
            <mxPoint x="-10" y="210" as="sourcePoint" />
          </mxGeometry>
        </mxCell>
        <mxCell id="0xFaeS9UzdxINUvmmL4n-22" style="edgeStyle=orthogonalEdgeStyle;rounded=0;orthogonalLoop=1;jettySize=auto;html=1;entryX=0.994;entryY=0.351;entryDx=0;entryDy=0;entryPerimeter=0;exitX=0;exitY=0.185;exitDx=0;exitDy=0;exitPerimeter=0;" parent="1" source="0xFaeS9UzdxINUvmmL4n-20" target="0xFaeS9UzdxINUvmmL4n-31" edge="1">
          <mxGeometry relative="1" as="geometry" />
        </mxCell>
        <mxCell id="0xFaeS9UzdxINUvmmL4n-19" value="Offer" style="swimlane;fontStyle=1;align=center;verticalAlign=top;childLayout=stackLayout;horizontal=1;startSize=26;horizontalStack=0;resizeParent=1;resizeParentMax=0;resizeLast=0;collapsible=1;marginBottom=0;whiteSpace=wrap;html=1;" parent="1" vertex="1">
          <mxGeometry x="560" y="260" width="160" height="88" as="geometry" />
        </mxCell>
        <mxCell id="0xFaeS9UzdxINUvmmL4n-20" value="+ price&lt;br&gt;+ capacity" style="text;strokeColor=none;fillColor=none;align=left;verticalAlign=top;spacingLeft=4;spacingRight=4;overflow=hidden;rotatable=0;points=[[0,0.5],[1,0.5]];portConstraint=eastwest;whiteSpace=wrap;html=1;" parent="0xFaeS9UzdxINUvmmL4n-19" vertex="1">
          <mxGeometry y="26" width="160" height="54" as="geometry" />
        </mxCell>
        <mxCell id="0xFaeS9UzdxINUvmmL4n-21" value="" style="line;strokeWidth=1;fillColor=none;align=left;verticalAlign=middle;spacingTop=-1;spacingLeft=3;spacingRight=3;rotatable=0;labelPosition=right;points=[];portConstraint=eastwest;strokeColor=inherit;" parent="0xFaeS9UzdxINUvmmL4n-19" vertex="1">
          <mxGeometry y="80" width="160" height="8" as="geometry" />
        </mxCell>
        <mxCell id="0xFaeS9UzdxINUvmmL4n-27" style="edgeStyle=orthogonalEdgeStyle;rounded=0;orthogonalLoop=1;jettySize=auto;html=1;entryX=0.5;entryY=1;entryDx=0;entryDy=0;" parent="1" source="0xFaeS9UzdxINUvmmL4n-23" target="0xFaeS9UzdxINUvmmL4n-19" edge="1">
          <mxGeometry relative="1" as="geometry" />
        </mxCell>
        <mxCell id="0xFaeS9UzdxINUvmmL4n-23" value="Reserviation" style="swimlane;fontStyle=1;align=center;verticalAlign=top;childLayout=stackLayout;horizontal=1;startSize=26;horizontalStack=0;resizeParent=1;resizeParentMax=0;resizeLast=0;collapsible=1;marginBottom=0;whiteSpace=wrap;html=1;" parent="1" vertex="1">
          <mxGeometry x="560" y="489" width="160" height="98" as="geometry" />
        </mxCell>
        <mxCell id="0xFaeS9UzdxINUvmmL4n-24" value="+ seat: Seat&lt;br&gt;+ discountCoupon:{}&lt;br&gt;+ userName&lt;br&gt;+ QRCode" style="text;strokeColor=none;fillColor=none;align=left;verticalAlign=top;spacingLeft=4;spacingRight=4;overflow=hidden;rotatable=0;points=[[0,0.5],[1,0.5]];portConstraint=eastwest;whiteSpace=wrap;html=1;" parent="0xFaeS9UzdxINUvmmL4n-23" vertex="1">
          <mxGeometry y="26" width="160" height="64" as="geometry" />
        </mxCell>
        <mxCell id="0xFaeS9UzdxINUvmmL4n-25" value="" style="line;strokeWidth=1;fillColor=none;align=left;verticalAlign=middle;spacingTop=-1;spacingLeft=3;spacingRight=3;rotatable=0;labelPosition=right;points=[];portConstraint=eastwest;strokeColor=inherit;" parent="0xFaeS9UzdxINUvmmL4n-23" vertex="1">
          <mxGeometry y="90" width="160" height="8" as="geometry" />
        </mxCell>
        <mxCell id="0xFaeS9UzdxINUvmmL4n-61" style="edgeStyle=orthogonalEdgeStyle;rounded=0;orthogonalLoop=1;jettySize=auto;html=1;entryX=0.5;entryY=0;entryDx=0;entryDy=0;" parent="1" source="0xFaeS9UzdxINUvmmL4n-30" target="0xFaeS9UzdxINUvmmL4n-58" edge="1">
          <mxGeometry relative="1" as="geometry" />
        </mxCell>
        <mxCell id="0xFaeS9UzdxINUvmmL4n-62" value="seats" style="edgeLabel;html=1;align=center;verticalAlign=middle;resizable=0;points=[];" parent="0xFaeS9UzdxINUvmmL4n-61" vertex="1" connectable="0">
          <mxGeometry x="-0.2459" y="-1" relative="1" as="geometry">
            <mxPoint x="1" y="8" as="offset" />
          </mxGeometry>
        </mxCell>
        <mxCell id="0xFaeS9UzdxINUvmmL4n-30" value="ProjectionView&lt;br&gt;" style="swimlane;fontStyle=1;align=center;verticalAlign=top;childLayout=stackLayout;horizontal=1;startSize=26;horizontalStack=0;resizeParent=1;resizeParentMax=0;resizeLast=0;collapsible=1;marginBottom=0;whiteSpace=wrap;html=1;" parent="1" vertex="1">
          <mxGeometry x="165" y="230" width="180" height="148" as="geometry" />
        </mxCell>
        <mxCell id="0xFaeS9UzdxINUvmmL4n-31" value="+ cinemaName&lt;br&gt;+ hallName&lt;br&gt;+ capacity&lt;br&gt;+ format&lt;br&gt;+ movieName&lt;br&gt;+ moviewDescription: string&lt;br&gt;+ ..." style="text;strokeColor=none;fillColor=none;align=left;verticalAlign=top;spacingLeft=4;spacingRight=4;overflow=hidden;rotatable=0;points=[[0,0.5],[1,0.5]];portConstraint=eastwest;whiteSpace=wrap;html=1;" parent="0xFaeS9UzdxINUvmmL4n-30" vertex="1">
          <mxGeometry y="26" width="180" height="114" as="geometry" />
        </mxCell>
        <mxCell id="0xFaeS9UzdxINUvmmL4n-32" value="" style="line;strokeWidth=1;fillColor=none;align=left;verticalAlign=middle;spacingTop=-1;spacingLeft=3;spacingRight=3;rotatable=0;labelPosition=right;points=[];portConstraint=eastwest;strokeColor=inherit;" parent="0xFaeS9UzdxINUvmmL4n-30" vertex="1">
          <mxGeometry y="140" width="180" height="8" as="geometry" />
        </mxCell>
        <mxCell id="0xFaeS9UzdxINUvmmL4n-34" value="Seat" style="swimlane;fontStyle=1;align=center;verticalAlign=top;childLayout=stackLayout;horizontal=1;startSize=26;horizontalStack=0;resizeParent=1;resizeParentMax=0;resizeLast=0;collapsible=1;marginBottom=0;whiteSpace=wrap;html=1;" parent="1" vertex="1">
          <mxGeometry x="-500" y="90" width="160" height="78" as="geometry" />
        </mxCell>
        <mxCell id="0xFaeS9UzdxINUvmmL4n-35" value="+ row: int&lt;br&gt;+ column int&lt;br&gt;+ isDouble int" style="text;strokeColor=none;fillColor=none;align=left;verticalAlign=top;spacingLeft=4;spacingRight=4;overflow=hidden;rotatable=0;points=[[0,0.5],[1,0.5]];portConstraint=eastwest;whiteSpace=wrap;html=1;" parent="0xFaeS9UzdxINUvmmL4n-34" vertex="1">
          <mxGeometry y="26" width="160" height="44" as="geometry" />
        </mxCell>
        <mxCell id="0xFaeS9UzdxINUvmmL4n-36" value="" style="line;strokeWidth=1;fillColor=none;align=left;verticalAlign=middle;spacingTop=-1;spacingLeft=3;spacingRight=3;rotatable=0;labelPosition=right;points=[];portConstraint=eastwest;strokeColor=inherit;" parent="0xFaeS9UzdxINUvmmL4n-34" vertex="1">
          <mxGeometry y="70" width="160" height="8" as="geometry" />
        </mxCell>
        <mxCell id="0xFaeS9UzdxINUvmmL4n-45" value="SupportedFormat" style="swimlane;fontStyle=1;align=center;verticalAlign=top;childLayout=stackLayout;horizontal=1;startSize=26;horizontalStack=0;resizeParent=1;resizeParentMax=0;resizeLast=0;collapsible=1;marginBottom=0;whiteSpace=wrap;html=1;" parent="1" vertex="1">
          <mxGeometry x="-660" y="470" width="160" height="60" as="geometry" />
        </mxCell>
        <mxCell id="0xFaeS9UzdxINUvmmL4n-46" value="+ dimension: 2D | 3D | 4D" style="text;strokeColor=none;fillColor=none;align=left;verticalAlign=top;spacingLeft=4;spacingRight=4;overflow=hidden;rotatable=0;points=[[0,0.5],[1,0.5]];portConstraint=eastwest;whiteSpace=wrap;html=1;" parent="0xFaeS9UzdxINUvmmL4n-45" vertex="1">
          <mxGeometry y="26" width="160" height="26" as="geometry" />
        </mxCell>
        <mxCell id="0xFaeS9UzdxINUvmmL4n-47" value="" style="line;strokeWidth=1;fillColor=none;align=left;verticalAlign=middle;spacingTop=-1;spacingLeft=3;spacingRight=3;rotatable=0;labelPosition=right;points=[];portConstraint=eastwest;strokeColor=inherit;" parent="0xFaeS9UzdxINUvmmL4n-45" vertex="1">
          <mxGeometry y="52" width="160" height="8" as="geometry" />
        </mxCell>
        <mxCell id="0xFaeS9UzdxINUvmmL4n-48" style="edgeStyle=orthogonalEdgeStyle;rounded=0;orthogonalLoop=1;jettySize=auto;html=1;entryX=0.431;entryY=0.033;entryDx=0;entryDy=0;entryPerimeter=0;" parent="1" source="0xFaeS9UzdxINUvmmL4n-2" target="0xFaeS9UzdxINUvmmL4n-45" edge="1">
          <mxGeometry relative="1" as="geometry" />
        </mxCell>
        <mxCell id="0xFaeS9UzdxINUvmmL4n-49" value="supported format" style="edgeLabel;html=1;align=center;verticalAlign=middle;resizable=0;points=[];" parent="0xFaeS9UzdxINUvmmL4n-48" vertex="1" connectable="0">
          <mxGeometry x="0.3119" y="-1" relative="1" as="geometry">
            <mxPoint as="offset" />
          </mxGeometry>
        </mxCell>
        <mxCell id="0Wo22rknSzl219PL7gas-3" style="edgeStyle=orthogonalEdgeStyle;rounded=0;orthogonalLoop=1;jettySize=auto;html=1;entryX=0.5;entryY=1;entryDx=0;entryDy=0;" parent="1" source="0xFaeS9UzdxINUvmmL4n-50" target="0xFaeS9UzdxINUvmmL4n-10" edge="1">
          <mxGeometry relative="1" as="geometry" />
        </mxCell>
        <mxCell id="0xFaeS9UzdxINUvmmL4n-50" value="Movie" style="swimlane;fontStyle=1;align=center;verticalAlign=top;childLayout=stackLayout;horizontal=1;startSize=26;horizontalStack=0;resizeParent=1;resizeParentMax=0;resizeLast=0;collapsible=1;marginBottom=0;whiteSpace=wrap;html=1;" parent="1" vertex="1">
          <mxGeometry x="-70" y="130" width="160" height="78" as="geometry" />
        </mxCell>
        <mxCell id="0xFaeS9UzdxINUvmmL4n-51" value="+ name: string&lt;br&gt;+ syncLangmuage: string?" style="text;strokeColor=none;fillColor=none;align=left;verticalAlign=top;spacingLeft=4;spacingRight=4;overflow=hidden;rotatable=0;points=[[0,0.5],[1,0.5]];portConstraint=eastwest;whiteSpace=wrap;html=1;" parent="0xFaeS9UzdxINUvmmL4n-50" vertex="1">
          <mxGeometry y="26" width="160" height="44" as="geometry" />
        </mxCell>
        <mxCell id="0xFaeS9UzdxINUvmmL4n-52" value="" style="line;strokeWidth=1;fillColor=none;align=left;verticalAlign=middle;spacingTop=-1;spacingLeft=3;spacingRight=3;rotatable=0;labelPosition=right;points=[];portConstraint=eastwest;strokeColor=inherit;" parent="0xFaeS9UzdxINUvmmL4n-50" vertex="1">
          <mxGeometry y="70" width="160" height="8" as="geometry" />
        </mxCell>
        <mxCell id="0xFaeS9UzdxINUvmmL4n-58" value="Seat" style="swimlane;fontStyle=1;align=center;verticalAlign=top;childLayout=stackLayout;horizontal=1;startSize=26;horizontalStack=0;resizeParent=1;resizeParentMax=0;resizeLast=0;collapsible=1;marginBottom=0;whiteSpace=wrap;html=1;" parent="1" vertex="1">
          <mxGeometry x="175" y="500" width="160" height="78" as="geometry" />
        </mxCell>
        <mxCell id="0xFaeS9UzdxINUvmmL4n-59" value="+ row: int&lt;br&gt;+ column int&lt;br&gt;+ isDouble int" style="text;strokeColor=none;fillColor=none;align=left;verticalAlign=top;spacingLeft=4;spacingRight=4;overflow=hidden;rotatable=0;points=[[0,0.5],[1,0.5]];portConstraint=eastwest;whiteSpace=wrap;html=1;" parent="0xFaeS9UzdxINUvmmL4n-58" vertex="1">
          <mxGeometry y="26" width="160" height="44" as="geometry" />
        </mxCell>
        <mxCell id="0xFaeS9UzdxINUvmmL4n-60" value="" style="line;strokeWidth=1;fillColor=none;align=left;verticalAlign=middle;spacingTop=-1;spacingLeft=3;spacingRight=3;rotatable=0;labelPosition=right;points=[];portConstraint=eastwest;strokeColor=inherit;" parent="0xFaeS9UzdxINUvmmL4n-58" vertex="1">
          <mxGeometry y="70" width="160" height="8" as="geometry" />
        </mxCell>
        <mxCell id="0xFaeS9UzdxINUvmmL4n-63" style="edgeStyle=orthogonalEdgeStyle;rounded=0;orthogonalLoop=1;jettySize=auto;html=1;entryX=1.006;entryY=0.159;entryDx=0;entryDy=0;entryPerimeter=0;" parent="1" source="0xFaeS9UzdxINUvmmL4n-23" target="0xFaeS9UzdxINUvmmL4n-59" edge="1">
          <mxGeometry relative="1" as="geometry" />
        </mxCell>
        <mxCell id="0xFaeS9UzdxINUvmmL4n-67" style="edgeStyle=orthogonalEdgeStyle;rounded=0;orthogonalLoop=1;jettySize=auto;html=1;startArrow=diamond;startFill=0;" parent="1" source="0xFaeS9UzdxINUvmmL4n-11" target="0xFaeS9UzdxINUvmmL4n-76" edge="1">
          <mxGeometry relative="1" as="geometry">
            <mxPoint x="220" y="28" as="targetPoint" />
          </mxGeometry>
        </mxCell>
        <mxCell id="0Wo22rknSzl219PL7gas-1" value="roles" style="edgeLabel;html=1;align=center;verticalAlign=middle;resizable=0;points=[];" parent="0xFaeS9UzdxINUvmmL4n-67" vertex="1" connectable="0">
          <mxGeometry x="-0.2182" y="2" relative="1" as="geometry">
            <mxPoint as="offset" />
          </mxGeometry>
        </mxCell>
        <mxCell id="0Wo22rknSzl219PL7gas-2" style="edgeStyle=orthogonalEdgeStyle;rounded=0;orthogonalLoop=1;jettySize=auto;html=1;startArrow=diamond;startFill=0;" parent="1" source="0xFaeS9UzdxINUvmmL4n-72" target="0xFaeS9UzdxINUvmmL4n-76" edge="1">
          <mxGeometry relative="1" as="geometry" />
        </mxCell>
        <mxCell id="0xFaeS9UzdxINUvmmL4n-72" value="Person" style="swimlane;fontStyle=1;align=center;verticalAlign=top;childLayout=stackLayout;horizontal=1;startSize=26;horizontalStack=0;resizeParent=1;resizeParentMax=0;resizeLast=0;collapsible=1;marginBottom=0;whiteSpace=wrap;html=1;" parent="1" vertex="1">
          <mxGeometry x="450" y="-4" width="160" height="74" as="geometry" />
        </mxCell>
        <mxCell id="0xFaeS9UzdxINUvmmL4n-73" value="+ name: string&lt;br&gt;+ lastName: string" style="text;strokeColor=none;fillColor=none;align=left;verticalAlign=top;spacingLeft=4;spacingRight=4;overflow=hidden;rotatable=0;points=[[0,0.5],[1,0.5]];portConstraint=eastwest;whiteSpace=wrap;html=1;" parent="0xFaeS9UzdxINUvmmL4n-72" vertex="1">
          <mxGeometry y="26" width="160" height="40" as="geometry" />
        </mxCell>
        <mxCell id="0xFaeS9UzdxINUvmmL4n-74" value="" style="line;strokeWidth=1;fillColor=none;align=left;verticalAlign=middle;spacingTop=-1;spacingLeft=3;spacingRight=3;rotatable=0;labelPosition=right;points=[];portConstraint=eastwest;strokeColor=inherit;" parent="0xFaeS9UzdxINUvmmL4n-72" vertex="1">
          <mxGeometry y="66" width="160" height="8" as="geometry" />
        </mxCell>
        <mxCell id="0xFaeS9UzdxINUvmmL4n-75" value="Role" style="swimlane;fontStyle=1;align=center;verticalAlign=top;childLayout=stackLayout;horizontal=1;startSize=26;horizontalStack=0;resizeParent=1;resizeParentMax=0;resizeLast=0;collapsible=1;marginBottom=0;whiteSpace=wrap;html=1;" parent="1" vertex="1">
          <mxGeometry x="190" y="-15" width="190" height="78" as="geometry" />
        </mxCell>
        <mxCell id="0xFaeS9UzdxINUvmmL4n-76" value="+role: MainActor | SideActor | Actor | Writter | Producerd | Director" style="text;strokeColor=none;fillColor=none;align=left;verticalAlign=top;spacingLeft=4;spacingRight=4;overflow=hidden;rotatable=0;points=[[0,0.5],[1,0.5]];portConstraint=eastwest;whiteSpace=wrap;html=1;" parent="0xFaeS9UzdxINUvmmL4n-75" vertex="1">
          <mxGeometry y="26" width="190" height="44" as="geometry" />
        </mxCell>
        <mxCell id="0xFaeS9UzdxINUvmmL4n-77" value="" style="line;strokeWidth=1;fillColor=none;align=left;verticalAlign=middle;spacingTop=-1;spacingLeft=3;spacingRight=3;rotatable=0;labelPosition=right;points=[];portConstraint=eastwest;strokeColor=inherit;" parent="0xFaeS9UzdxINUvmmL4n-75" vertex="1">
          <mxGeometry y="70" width="190" height="8" as="geometry" />
        </mxCell>
        <mxCell id="0xFaeS9UzdxINUvmmL4n-5" value="Cinema" style="swimlane;fontStyle=1;align=center;verticalAlign=top;childLayout=stackLayout;horizontal=1;startSize=26;horizontalStack=0;resizeParent=1;resizeParentMax=0;resizeLast=0;collapsible=1;marginBottom=0;whiteSpace=wrap;html=1;" parent="1" vertex="1">
          <mxGeometry x="-452" y="424" width="150" height="68" as="geometry" />
        </mxCell>
        <mxCell id="0xFaeS9UzdxINUvmmL4n-6" value="+ name: int&lt;br&gt;+ adress: string" style="text;strokeColor=none;fillColor=none;align=left;verticalAlign=top;spacingLeft=4;spacingRight=4;overflow=hidden;rotatable=0;points=[[0,0.5],[1,0.5]];portConstraint=eastwest;whiteSpace=wrap;html=1;" parent="0xFaeS9UzdxINUvmmL4n-5" vertex="1">
          <mxGeometry y="26" width="150" height="34" as="geometry" />
        </mxCell>
        <mxCell id="0xFaeS9UzdxINUvmmL4n-7" value="" style="line;strokeWidth=1;fillColor=none;align=left;verticalAlign=middle;spacingTop=-1;spacingLeft=3;spacingRight=3;rotatable=0;labelPosition=right;points=[];portConstraint=eastwest;strokeColor=inherit;" parent="0xFaeS9UzdxINUvmmL4n-5" vertex="1">
          <mxGeometry y="60" width="150" height="8" as="geometry" />
        </mxCell>
        <mxCell id="0Wo22rknSzl219PL7gas-4" value="SupportedFormat(*)" style="swimlane;fontStyle=1;align=center;verticalAlign=top;childLayout=stackLayout;horizontal=1;startSize=26;horizontalStack=0;resizeParent=1;resizeParentMax=0;resizeLast=0;collapsible=1;marginBottom=0;whiteSpace=wrap;html=1;" parent="1" vertex="1">
          <mxGeometry x="-310" y="139" width="160" height="60" as="geometry" />
        </mxCell>
        <mxCell id="0Wo22rknSzl219PL7gas-5" value="+ dimension: 2D | 3D | 4D" style="text;strokeColor=none;fillColor=none;align=left;verticalAlign=top;spacingLeft=4;spacingRight=4;overflow=hidden;rotatable=0;points=[[0,0.5],[1,0.5]];portConstraint=eastwest;whiteSpace=wrap;html=1;" parent="0Wo22rknSzl219PL7gas-4" vertex="1">
          <mxGeometry y="26" width="160" height="26" as="geometry" />
        </mxCell>
        <mxCell id="0Wo22rknSzl219PL7gas-6" value="" style="line;strokeWidth=1;fillColor=none;align=left;verticalAlign=middle;spacingTop=-1;spacingLeft=3;spacingRight=3;rotatable=0;labelPosition=right;points=[];portConstraint=eastwest;strokeColor=inherit;" parent="0Wo22rknSzl219PL7gas-4" vertex="1">
          <mxGeometry y="52" width="160" height="8" as="geometry" />
        </mxCell>
        <mxCell id="0Wo22rknSzl219PL7gas-7" style="edgeStyle=orthogonalEdgeStyle;rounded=0;orthogonalLoop=1;jettySize=auto;html=1;startArrow=diamond;startFill=1;" parent="1" source="0xFaeS9UzdxINUvmmL4n-51" target="0Wo22rknSzl219PL7gas-5" edge="1">
          <mxGeometry relative="1" as="geometry" />
        </mxCell>
        <mxCell id="0Wo22rknSzl219PL7gas-11" style="edgeStyle=orthogonalEdgeStyle;rounded=0;orthogonalLoop=1;jettySize=auto;html=1;entryX=1;entryY=0.25;entryDx=0;entryDy=0;" parent="1" source="0xFaeS9UzdxINUvmmL4n-20" target="0xFaeS9UzdxINUvmmL4n-58" edge="1">
          <mxGeometry relative="1" as="geometry" />
        </mxCell>
        <mxCell id="I6Crcy-POj6iGwUBQOve-1" value="User" style="swimlane;fontStyle=1;align=center;verticalAlign=top;childLayout=stackLayout;horizontal=1;startSize=26;horizontalStack=0;resizeParent=1;resizeParentMax=0;resizeLast=0;collapsible=1;marginBottom=0;whiteSpace=wrap;html=1;" vertex="1" parent="1">
          <mxGeometry x="571" y="670" width="160" height="88" as="geometry" />
        </mxCell>
        <mxCell id="I6Crcy-POj6iGwUBQOve-2" value="+ email: string&lt;br&gt;+ password: string" style="text;strokeColor=none;fillColor=none;align=left;verticalAlign=top;spacingLeft=4;spacingRight=4;overflow=hidden;rotatable=0;points=[[0,0.5],[1,0.5]];portConstraint=eastwest;whiteSpace=wrap;html=1;" vertex="1" parent="I6Crcy-POj6iGwUBQOve-1">
          <mxGeometry y="26" width="160" height="54" as="geometry" />
        </mxCell>
        <mxCell id="I6Crcy-POj6iGwUBQOve-3" value="" style="line;strokeWidth=1;fillColor=none;align=left;verticalAlign=middle;spacingTop=-1;spacingLeft=3;spacingRight=3;rotatable=0;labelPosition=right;points=[];portConstraint=eastwest;strokeColor=inherit;" vertex="1" parent="I6Crcy-POj6iGwUBQOve-1">
          <mxGeometry y="80" width="160" height="8" as="geometry" />
        </mxCell>
        <mxCell id="I6Crcy-POj6iGwUBQOve-4" value="PaymentMethod" style="swimlane;fontStyle=1;align=center;verticalAlign=top;childLayout=stackLayout;horizontal=1;startSize=26;horizontalStack=0;resizeParent=1;resizeParentMax=0;resizeLast=0;collapsible=1;marginBottom=0;whiteSpace=wrap;html=1;" vertex="1" parent="1">
          <mxGeometry x="335" y="670" width="160" height="88" as="geometry" />
        </mxCell>
        <mxCell id="I6Crcy-POj6iGwUBQOve-5" value="&amp;lt;scripted data&amp;gt;" style="text;strokeColor=none;fillColor=none;align=left;verticalAlign=top;spacingLeft=4;spacingRight=4;overflow=hidden;rotatable=0;points=[[0,0.5],[1,0.5]];portConstraint=eastwest;whiteSpace=wrap;html=1;" vertex="1" parent="I6Crcy-POj6iGwUBQOve-4">
          <mxGeometry y="26" width="160" height="54" as="geometry" />
        </mxCell>
        <mxCell id="I6Crcy-POj6iGwUBQOve-6" value="" style="line;strokeWidth=1;fillColor=none;align=left;verticalAlign=middle;spacingTop=-1;spacingLeft=3;spacingRight=3;rotatable=0;labelPosition=right;points=[];portConstraint=eastwest;strokeColor=inherit;" vertex="1" parent="I6Crcy-POj6iGwUBQOve-4">
          <mxGeometry y="80" width="160" height="8" as="geometry" />
        </mxCell>
        <mxCell id="I6Crcy-POj6iGwUBQOve-7" style="edgeStyle=orthogonalEdgeStyle;rounded=0;orthogonalLoop=1;jettySize=auto;html=1;entryX=0.988;entryY=0.315;entryDx=0;entryDy=0;entryPerimeter=0;startArrow=diamond;startFill=1;" edge="1" parent="1" source="I6Crcy-POj6iGwUBQOve-1" target="I6Crcy-POj6iGwUBQOve-5">
          <mxGeometry relative="1" as="geometry" />
        </mxCell>
      </root>
    </mxGraphModel>
  </diagram>
</mxfile>
